# AST/ASF file generated using VICON BodyLanguage
# -----------------------------------------------
:version 1.10
:name VICON
:units
  mass 1.0
  length 0.45
  angle deg
:documentation
   .ast/.asf automatically generated from VICON data using
   VICON BodyBuilder and BodyLanguage model FoxedUp or BRILLIANT.MOD
:root
   order TX TY TZ RX RY RZ
   axis XYZ
   position 0 0 0  
   orientation 0 0 0 
:bonedata
  begin
     id 1 
     name lhipjoint
     direction 0.611823 -0.767273 0.19226 
     length 2.47422 
     axis 0 0 0  XYZ
  end
  begin
     id 2 
     name lfemur
     direction 0.34202 -0.939693 0  
     length 7.40835  
     axis 0 0 20  XYZ
    dof rx ry rz
    limits (-160.0 20.0)
           (-70.0 70.0)
           (-60.0 70.0)
  end
  begin
     id 3 
     name ltibia
     direction 0.34202 -0.939693 0   
     length 8.03679   
     axis 0 0 20   XYZ
    dof rx
    limits (-10.0 170.0)
  end
  begin
     id 4 
     name lfoot
     direction 0.0883598 -0.242766 0.966052   
     length 2.06694   
     axis -90 7.62852e-016 20   XYZ
    dof rx rz
    limits (-45.0 90.0)
           (-70.0 20.0)
  end
  begin
     id 5 
     name ltoes
     direction 1.53617e-011 -4.21699e-011 1   
     length 1.03711   
     axis -90 7.62852e-016 20   XYZ
    dof rx
    limits (-90.0 20.0)
  end
  begin
     id 6 
     name rhipjoint
     direction -0.590066 -0.783143 0.196236   
     length 2.42408  
     axis 0 0 0  XYZ 
  end
  begin
     id 7 
     name rfemur
     direction -0.34202 -0.939693 0   
     length 7.88987   
     axis 0 0 -20   XYZ
    dof rx ry rz
    limits (-160.0 20.0)
           (-70.0 70.0)
           (-70.0 60.0)
  end
  begin
     id 8 
     name rtibia
     direction -0.34202 -0.939693 0   
     length 7.87584   
     axis 0 0 -20   XYZ
    dof rx
    limits (-10.0 170.0)
 end
 begin
     id 9 
     name rfoot
     direction -0.130476 -0.358481 0.924374   
     length 2.21745  
     axis -90 -7.62852e-016 -20   XYZ
    dof rx rz
    limits (-45.0 90.0)
           (-20.0 70.0)
  end
  begin
     id 10 
     name rtoes
     direction 8.20695e-005 8.89091e-005 1   
     length 1.09536   
     axis -90 -7.62852e-016 -20   XYZ
    dof rx
    limits (-90.0 20.0)
  end
  begin
     id 11 
     name lowerback
     direction 0.00981224 0.999875 -0.0124197   
     length 1.94808   
     axis 0 0 0   XYZ
    dof rx ry rz
    limits (-20.0 45.0)
           (-30.0 30.0)
           (-30.0 30.0)
  end
  begin
     id 12 
     name upperback
     direction 0.038911 0.999194 0.00981686   
     length 1.94415   
     axis 0 0 0   XYZ
    dof rx ry rz
    limits (-20.0 45.0)
           (-30.0 30.0)
           (-30.0 30.0)
  end
  begin
     id 13 
     name thorax
     direction 0.0330692 0.999334 0.0154389   
     length 1.94117   
     axis 0 0 0   XYZ
    dof rx ry rz
    limits (-20.0 45.0)
           (-30.0 30.0)
           (-30.0 30.0)
  end
  begin
     id 14 
     name lowerneck
     direction -0.0374305 0.99415 0.10132   
     length 1.87291   
     axis 0 0 0   XYZ
    dof rx ry rz
    limits (-20.0 45.0)
           (-30.0 30.0)
           (-30.0 30.0)
  end
  begin
     id 15 
     name upperneck
     direction 0.0120692 0.985979 -0.166431   
     length 1.89248   
     axis 0 0 0   XYZ
    dof rx ry rz
    limits (-20.0 45.0)
           (-30.0 30.0)
           (-30.0 30.0)
  end
  begin
     id 16
     name head
     direction 0.00629908 0.997708 -0.06737  
     length 1.90559  
     axis 0 0 0   XYZ
    dof rx ry rz
    limits (-20.0 45.0)
           (-30.0 30.0)
           (-30.0 30.0)
  end
  begin
     id 17 
     name lclavicle
     direction 0.961536 0.27308 -0.0295863  
     length 3.52757  
     axis 0 0 0   XYZ
    dof ry rz
    limits (-20.0 10.0)
           (0.0 20.0)
  end
  begin
     id 18 
     name lhumerus
     direction 1 -4.48969e-011 2.61153e-029   
     length 5.14845   
     axis 180 -30 -90   XYZ
    dof rx ry rz
    limits (-60.0 90.0)
           (-90.0 90.0)
           (-90.0 90.0)
  end
  begin
     id 19
     name lradius
     direction 1 -4.4896e-011 -3.37549e-027   
     length 3.43674   
     axis 180 -30 -90   XYZ
    dof rx
    limits (-10.0 170.0)
  end
  begin
     id 20
     name lwrist
     direction 1 -4.48969e-011 2.56952e-028   
     length 1.71837   
     axis -5.12785e-016 90 90   XYZ
    dof ry
    limits (-180.0 0.0)
 end
  begin
     id 21 
     name lhand
     direction 1 -4.49094e-011 5.13905e-028   
     length 0.588709   
     axis -3.27915e-016 90 90   XYZ
    dof rx rz
    limits (-90.0 90.0)
           (-45.0 45.0)
  end
  begin
     id 22 
     name lfingers
     direction 1 -4.48821e-011 1.02781e-027   
     length 0.474633   
     axis -6.5583e-016 90 90   XYZ
    dof rx
    limits (0.0 90.0)
  end
  begin
     id 23
     name lthumb
     direction 0.707107 -6.34922e-011 0.707107   
     length 0.68148   
     axis -90 45 2.85299e-015   XYZ
    dof rx rz
    limits (-45.0 45.0)
           (-45.0 45.0)
  end
  begin
     id 24 
     name rclavicle
     direction -0.940964 0.333844 -0.0559866   
     length 3.55948  
     axis 0 0 0   XYZ 
    dof ry rz
    limits (-10.0 20.0)
           (-20.0 0.0)
  end
  begin
     id 25 
     name rhumerus
     direction -1 -4.48973e-011 3.15259e-027  
     length 5.42185   
     axis 180 30 90   XYZ
    dof rx ry rz
    limits (-90.0 60.0)
           (-90.0 90.0)
           (-90.0 90.0)
  end
  begin
     id 26 
     name rradius
     direction -1 -4.48954e-011 -2.56271e-027   
     length 3.51317   
     axis 180 30 90   XYZ
    dof rx
    limits (-10.0 170.0)
  end
  begin
     id 27 
     name rwrist
     direction -1 -4.48943e-011 2.56952e-028   
     length 1.75658   
     axis -5.12785e-016 -90 -90   XYZ
    dof ry
    limits (-180.0 0.0)
  end
  begin
     id 28
     name rhand
     direction -1 -4.4912e-011 5.13905e-028   
     length 0.663187   
     axis -3.27915e-016 -90 -90   XYZ
    dof rx rz
    limits (-90.0 90.0)
           (-45.0 45.0)
  end
  begin
     id 29
     name rfingers
     direction -1 -4.48914e-011 1.02781e-027   
     length 0.534679   
     axis -6.5583e-016 -90 -90   XYZ
    dof rx
    limits (0.0 90.0)
  end
  begin
     id 30
     name rthumb
     direction -0.707107 -6.35033e-011 0.707107   
     length 0.767695   
     axis -90 -45 -2.85299e-015   XYZ
    dof rx rz
    limits (-45.0 45.0)
           (-45.0 45.0)
  end
:hierarchy
  begin
    root lhipjoint rhipjoint lowerback
    lhipjoint lfemur
    lfemur ltibia
    ltibia lfoot
    lfoot ltoes
    rhipjoint rfemur
    rfemur rtibia
    rtibia rfoot
    rfoot rtoes
    lowerback upperback
    upperback thorax
    thorax lowerneck lclavicle rclavicle
    lowerneck upperneck
    upperneck head
    lclavicle lhumerus
    lhumerus lradius
    lradius lwrist
    lwrist lhand lthumb
    lhand lfingers
    rclavicle rhumerus
    rhumerus rradius
    rradius rwrist
    rwrist rhand rthumb
    rhand rfingers
  end

#!OML:ASF F:\VICON\USERDATA\INSTALL\Justin_a\Justin_a.ASF
:FULLY-SPECIFIED
:DEGREES
1
root 15.053 17.7256 -4.68858 115.102 -86.77 -106.736
lowerback 0.269505 0.862549 -0.199085
upperback -0.0505736 1.1171 3.41385
thorax -0.275206 0.545024 3.61282
lowerneck -13.4263 0.125739 -3.27825
upperneck 35.9766 0.548497 -2.16118
head 14.6836 -0.97214 -0.345806
rclavicle 7.55382e-015 4.53229e-014
rhumerus -28.3663 -6.57975 -83.4584
rradius 27.8773
rwrist 0.246607
rhand -27.7309 14.2509
rfingers 7.12502
rthumb -1.12605 -15.7259
lclavicle 7.55382e-015 4.53229e-014
lhumerus -36.1128 8.43773 84.1691
lradius 32.1547
lwrist 2.03001
lhand -16.9873 25.3433
lfingers 7.12502
lthumb 9.24759 55.1205
rfemur -23.1672 6.38108 27.6607
rtibia 42.0359
rfoot -28.5951 -7.00334
rtoes 8.66923
lfemur -24.9023 2.37068 -19.4504
ltibia 42.126
lfoot -21.5667 6.19549
ltoes -10.4088
2
root 15.0451 17.7194 -4.70564 112.176 -86.8158 -103.813
lowerback 0.332229 0.853223 -0.123043
upperback -0.045825 1.10607 3.38953
thorax -0.302842 0.539625 3.54379
lowerneck -13.3898 0.0815856 -3.21617
upperneck 35.9614 0.466626 -2.1718
head 14.6682 -0.998706 -0.373621
rclavicle 1.66979e-014 3.97569e-015
rhumerus -28.3521 -6.90324 -83.4103
rradius 27.9285
rwrist 0.25822
rhand -27.5046 14.2916
rfingers 7.12502
rthumb -0.907463 -15.6862
lclavicle 1.66979e-014 3.97569e-015
lhumerus -36.0402 8.15852 84.2457
lradius 32.1446
lwrist 2.05711
lhand -17.1853 25.2329
lfingers 7.12502
lthumb 9.05654 55.0184
rfemur -23.0687 6.27615 27.7428
rtibia 41.9991
rfoot -28.6581 -7.02577
rtoes 8.52953
lfemur -25.5377 2.5182 -19.4131
ltibia 43.2305
lfoot -21.1649 5.94738
ltoes -11.33
3
root 15.0376 17.7181 -4.71924 110.448 -86.7658 -102.124
lowerback 0.400168 0.765761 -0.00758617
upperback 0.0114161 0.987649 3.44117
thorax -0.273747 0.478635 3.53246
lowerneck -13.3584 0.0868968 -3.32694
upperneck 35.848 0.502486 -2.1531
head 14.6078 -0.991752 -0.338042
rclavicle 1.67973e-014 1.19271e-014
rhumerus -28.2787 -6.72313 -83.4459
rradius 28.0624
rwrist 0.207561
rhand -27.6367 14.3548
rfingers 7.12502
rthumb -1.03501 -15.6224
lclavicle 1.67973e-014 1.19271e-014
lhumerus -35.9813 8.22841 84.2658
lradius 32.2198
lwrist 2.34059
lhand -17.3535 25.4851
lfingers 7.12502
lthumb 8.89421 55.2777
rfemur -22.964 6.21534 27.8849
rtibia 42.0018
rfoot -28.697 -7.10854
rtoes 8.31472
lfemur -26.1726 2.66735 -19.2901
ltibia 44.458
lfoot -20.9188 5.56964
ltoes -9.77002
4
root 15.0326 17.7103 -4.73588 107.72 -86.7392 -99.3495
lowerback 0.472042 0.69117 0.0740063
upperback -0.00414162 0.889205 3.47854
thorax -0.323266 0.429183 3.52485
lowerneck -13.3244 0.0891233 -3.37711
upperneck 35.7743 0.513604 -2.13239
head 14.5654 -0.988121 -0.317146
rclavicle 1.49089e-015 5.56597e-015
rhumerus -28.2088 -6.67862 -83.4209
rradius 28.0573
rwrist 0.395958
rhand -27.761 14.2823
rfingers 7.12502
rthumb -1.15509 -15.6944
lclavicle 1.49089e-015 5.56597e-015
lhumerus -35.9806 8.17196 84.3357
lradius 32.4006
lwrist 2.53566
lhand -17.2834 25.6544
lfingers 7.12502
lthumb 8.9619 55.4441
rfemur -23.0051 6.09796 28.0351
rtibia 41.994
rfoot -28.6618 -7.16758
rtoes 8.04769
lfemur -26.9767 2.8761 -19.1948
ltibia 45.6926
lfoot -20.5718 5.23121
ltoes -9.73722
5
root 15.0255 17.7035 -4.75328 103.805 -86.7411 -95.3949
lowerback 0.501868 0.663985 0.121289
upperback 0.00283965 0.85301 3.49818
thorax -0.330224 0.410708 3.5185
lowerneck -13.357 0.0788948 -3.32191
upperneck 35.7591 0.478014 -2.10173
head 14.5653 -0.989258 -0.319305
rclavicle 2.5842e-015 3.97569e-015
rhumerus -28.2161 -6.71432 -83.3493
rradius 28.1138
rwrist 0.402358
rhand -27.5647 14.3801
rfingers 7.12502
rthumb -0.965523 -15.5975
lclavicle 2.5842e-015 3.97569e-015
lhumerus -35.9336 7.96461 84.4842
lradius 32.4877
lwrist 2.47964
lhand -17.3064 25.4617
lfingers 7.12502
lthumb 8.93965 55.2523
rfemur -23.0097 5.98459 28.138
rtibia 41.9683
rfoot -28.5926 -7.1197
rtoes 7.87714
lfemur -27.8281 3.18971 -19.1318
ltibia 46.9836
lfoot -20.1038 4.78087
ltoes -10.9823
6
root 15.0142 17.7052 -4.76896 100.077 -86.6701 -91.5878
lowerback 0.405681 0.648392 0.208252
upperback 0.031429 0.827466 3.57568
thorax -0.245308 0.395999 3.55117
lowerneck -13.3811 -0.000217274 -3.49853
upperneck 35.7101 0.385999 -2.00875
head 14.5486 -1.03593 -0.263219
rclavicle 2.5842e-015 7.15625e-015
rhumerus -28.1032 -6.42833 -83.3039
rradius 28.0655
rwrist 0.0194421
rhand -27.8658 14.4226
rfingers 7.12502
rthumb -1.25634 -15.5534
lclavicle 2.5842e-015 7.15625e-015
lhumerus -35.7838 7.86936 84.6661
lradius 32.478
lwrist 2.37963
lhand -17.5913 25.7811
lfingers 7.12502
lthumb 8.66478 55.5833
rfemur -23.0195 5.77491 28.3148
rtibia 41.9175
rfoot -28.5189 -7.25233
rtoes 6.71148
lfemur -28.7533 3.37407 -18.9841
ltibia 48.3011
lfoot -19.5821 4.31883
ltoes -10.7662
7
root 15.0061 17.6999 -4.78571 97.7677 -86.4509 -89.292
lowerback 0.508739 0.619345 0.378711
upperback 0.0689735 0.787019 3.69441
thorax -0.261489 0.373689 3.57735
lowerneck -13.4329 -0.0113263 -3.49394
upperneck 35.6751 0.404099 -2.0883
head 14.545 -1.03615 -0.293229
rclavicle -5.26779e-015 2.3059e-014
rhumerus -28.0279 -6.18179 -83.3024
rradius 28.1392
rwrist -0.342528
rhand -28.2612 14.3476
rfingers 7.12502
rthumb -1.6382 -15.6258
lclavicle -5.26779e-015 2.3059e-014
lhumerus -35.6791 7.77272 84.7995
lradius 32.5388
lwrist 2.49072
lhand -17.6485 25.9102
lfingers 7.12502
lthumb 8.60952 55.7147
rfemur -22.9214 5.49534 28.6569
rtibia 41.8306
rfoot -28.5108 -7.19553
rtoes 6.06318
lfemur -29.5715 3.51642 -18.6837
ltibia 49.6035
lfoot -18.959 4.37245
ltoes -11.7836
8
root 14.9951 17.6932 -4.80249 97.2609 -86.159 -88.8771
lowerback 0.652435 0.606505 0.594086
upperback 0.11667 0.768328 3.8456
thorax -0.291222 0.361631 3.61143
lowerneck -13.4442 0.0189933 -3.50083
upperneck 35.6696 0.46836 -2.13433
head 14.5452 -1.01585 -0.300664
rclavicle 4.96962e-015 9.54166e-015
rhumerus -28.0006 -6.24883 -83.2108
rradius 28.1978
rwrist -0.235175
rhand -28.0253 14.0954
rfingers 7.12502
rthumb -1.41032 -15.8797
lclavicle 4.96962e-015 9.54166e-015
lhumerus -35.616 7.77925 84.9158
lradius 32.5712
lwrist 2.55811
lhand -17.4107 25.56
lfingers 7.12502
lthumb 8.839 55.3549
rfemur -22.7079 5.3912 29.0598
rtibia 41.7249
rfoot -28.5916 -6.97793
rtoes 6.98498
lfemur -30.2621 3.74763 -18.3133
ltibia 50.8596
lfoot -18.426 4.37612
ltoes -13.2539
9
root 14.9819 17.6943 -4.81618 95.9121 -86.0026 -87.5583
lowerback 0.701898 0.603221 0.769002
upperback 0.133989 0.763565 3.89939
thorax -0.299293 0.357873 3.56806
lowerneck -13.3369 -0.0070616 -3.4337
upperneck 35.6139 0.404136 -2.13888
head 14.4945 -1.03268 -0.322867
rclavicle 3.67752e-015 3.18055e-014
rhumerus -28.0371 -6.45906 -83.0967
rradius 28.2672
rwrist 0.00306384
rhand -27.7482 13.9307
rfingers 7.12502
rthumb -1.1427 -16.046
lclavicle 3.67752e-015 3.18055e-014
lhumerus -35.603 7.40974 85.0992
lradius 32.7111
lwrist 2.83986
lhand -17.4305 25.3392
lfingers 7.12502
lthumb 8.81996 55.1349
rfemur -22.5477 5.30352 29.2967
rtibia 41.5976
rfoot -28.6187 -6.93476
rtoes 6.97884
lfemur -31.0239 3.95027 -18.0942
ltibia 52.0617
lfoot -18.0391 4.1341
ltoes -13.6076
10
root 14.97 17.691 -4.82987 93.5409 -85.9923 -85.1572
lowerback 0.677771 0.599823 0.804463
upperback 0.199911 0.756272 3.87816
thorax -0.216958 0.353481 3.52669
lowerneck -13.3854 -0.0944217 -3.38553
upperneck 35.5695 0.250542 -2.08591
head 14.485 -1.08039 -0.332771
rclavicle 6.26172e-015 1.11319e-014
rhumerus -27.9534 -6.38394 -83.0606
rradius 28.3438
rwrist -0.0341005
rhand -27.772 13.8305
rfingers 7.12502
rthumb -1.16569 -16.146
lclavicle 6.26172e-015 1.11319e-014
lhumerus -35.4124 7.20612 85.1535
lradius 32.7804
lwrist 2.89029
lhand -17.1803 25.5754
lfingers 7.12502
lthumb 9.06139 55.3608
rfemur -22.472 5.12412 29.3864
rtibia 41.442
rfoot -28.5863 -7.13846
rtoes 6.11293
lfemur -31.8863 4.0506 -18.0441
ltibia 53.2264
lfoot -17.654 4.10147
ltoes -14.5893
11
root 14.9588 17.6807 -4.83772 91.3227 -85.8732 -82.9999
lowerback 0.800129 0.594828 1.00484
upperback 0.257173 0.75189 3.85971
thorax -0.22369 0.350503 3.3936
lowerneck -13.4522 -0.147148 -3.31207
upperneck 35.5592 0.151026 -2.06173
head 14.4953 -1.10726 -0.351335
rclavicle 3.27995e-015 8.74653e-015
rhumerus -27.9213 -6.70379 -82.948
rradius 28.3479
rwrist 0.24138
rhand -27.7332 13.7699
rfingers 7.12502
rthumb -1.12824 -16.2069
lclavicle 3.27995e-015 8.74653e-015
lhumerus -35.3283 6.96666 85.1964
lradius 32.9615
lwrist 3.07653
lhand -17.0702 25.5936
lfingers 7.12502
lthumb 9.16765 55.3743
rfemur -22.2429 4.84012 29.5994
rtibia 41.2669
rfoot -28.5972 -7.35878
rtoes 5.25733
lfemur -32.6451 4.08185 -17.8856
ltibia 54.3282
lfoot -17.1489 4.21065
ltoes -15.9657
12
root 14.9458 17.6667 -4.83619 90.7185 -85.7596 -82.4763
lowerback 0.938617 0.631293 1.28751
upperback 0.297674 0.803669 3.88003
thorax -0.258764 0.375116 3.25347
lowerneck -13.4111 -0.206252 -3.43016
upperneck 35.5439 0.0631649 -1.97054
head 14.4795 -1.14688 -0.3063
rclavicle 4.57205e-015 -3.97569e-015
rhumerus -27.855 -7.55054 -82.6138
rradius 28.1106
rwrist 0.999578
rhand -27.9049 14.1324
rfingers 7.12502
rthumb -1.29405 -15.8435
lclavicle 4.57205e-015 -3.97569e-015
lhumerus -35.2349 6.75699 85.364
lradius 33.0726
lwrist 3.27239
lhand -16.9101 25.422
lfingers 7.12502
lthumb 9.32204 55.1959
rfemur -22.0245 4.33889 29.8091
rtibia 41.1376
rfoot -28.457 -7.82178
rtoes 2.09604
lfemur -33.3599 4.05234 -17.7413
ltibia 55.3387
lfoot -16.773 4.35183
ltoes -17.2331
